<svg xmlns="http://www.w3.org/2000/svg" viewBox="0 0 1400 1000">
  <defs>
    <linearGradient id="stone" x1="0" x2="1" y1="0" y2="1">
      <stop offset="0" stop-color="#13211e"/>
      <stop offset=".52" stop-color="#31463d"/>
      <stop offset="1" stop-color="#080d0c"/>
    </linearGradient>
    <radialGradient id="eye" cx=".5" cy=".36" r=".42">
      <stop offset="0" stop-color="#d5c078" stop-opacity=".8"/>
      <stop offset=".24" stop-color="#6aae92" stop-opacity=".24"/>
      <stop offset="1" stop-color="#08110f" stop-opacity="0"/>
    </radialGradient>
  </defs>
  <rect width="1400" height="1000" fill="url(#stone)"/>
  <rect width="1400" height="1000" fill="url(#eye)"/>
  <g fill="none" stroke="#0b1714" stroke-width="8" opacity=".48">
    <path d="M0 194h1400M0 392h1400M0 590h1400M0 788h1400"/>
    <path d="M184 0v1000M424 0v1000M698 0v1000M976 0v1000M1212 0v1000"/>
  </g>
  <circle cx="700" cy="438" r="178" fill="none" stroke="#bdad78" stroke-opacity=".58" stroke-width="12"/>
  <path d="M566 448c92 58 238 8 211-73-15-45-91-33-86 8 3 27 47 26 50 2" fill="none" stroke="#d6d1bd" stroke-width="20" stroke-linecap="round"/>
  <path d="M500 604h400" stroke="#bdad78" stroke-width="8" stroke-linecap="round"/>
</svg>
