<svg xmlns="http://www.w3.org/2000/svg" viewBox="0 0 1400 1000">
  <defs>
    <linearGradient id="desk" x1="0" x2="1" y1="0" y2="1">
      <stop offset="0" stop-color="#071816"/>
      <stop offset=".56" stop-color="#244134"/>
      <stop offset="1" stop-color="#5d3f24"/>
    </linearGradient>
    <filter id="grain"><feTurbulence baseFrequency=".018" numOctaves="4" seed="14"/></filter>
  </defs>
  <rect width="1400" height="1000" fill="url(#desk)"/>
  <rect width="1400" height="1000" filter="url(#grain)" opacity=".13"/>
  <path d="M290 150c210-38 431-34 660 0 46 219 42 438-6 660-204 42-421 46-650 0-52-224-48-444-4-660Z" fill="#e4d4ad" opacity=".86"/>
  <path d="M706 172c-24 196-23 407 0 634" fill="none" stroke="#8b7048" stroke-opacity=".28" stroke-width="5"/>
  <g fill="none" stroke="#273830" stroke-opacity=".36" stroke-linecap="round">
    <path d="M366 278h226M366 330h198M366 382h232M790 278h228M790 330h183M790 382h204"/>
    <path d="M410 490c52-66 108-66 170 0M820 502c75-88 151-88 226 0" stroke="#0e493c" stroke-width="5"/>
  </g>
  <path d="M940 678c58-106 132-174 224-206-22 112-85 200-188 266" fill="none" stroke="#c6b27a" stroke-width="14" stroke-linecap="round"/>
</svg>
